<svg xmlns="http://www.w3.org/2000/svg" version="1.1" xmlns:xlink="http://www.w3.org/1999/xlink" xmlns:svgjs="http://svgjs.dev/svgjs" width="2000" height="1500" viewBox="0 0 2000 1500"><rect width="2000" height="1500" fill="#000000"></rect><g transform="matrix(0.4444444444444444,0,0,0.4444444444444444,555.5556208333335,250)"><svg viewBox="0 0 320 360" data-background-color="#ffffff" preserveAspectRatio="xMidYMid meet" height="2250" width="2000" xmlns="http://www.w3.org/2000/svg" xmlns:xlink="http://www.w3.org/1999/xlink"><g id="tight-bounds" transform="matrix(1,0,0,1,0.000023499999997511622,0)"><svg viewBox="0 0 320 360" height="360" width="320"><g><svg></svg></g><g><svg viewBox="0 0 320 360" height="360" width="320"><g><path transform="translate(-74.99272,-51.79039) scale(4.65793,4.65793)" d="M20.6 59.9l0.8 1-0.4-1.3c-0.1-0.6-0.8 0.1-0.4 0.3M21.5 59.3c0.3 0.5 0.6 1 0.6 1.5 0 0.7 0.6 1 1.1 1.2-0.7-0.8-1.1-3-1.7-2.7M59.9 16.9c1.7 0 3.3-0.2 5.1 0.2 4.4 1.1 8.1 3.3 10.6 6.4l7 11.2c0.3 2.8 0.9 5.9 0.8 9.3 0.7 0 0.6-1 1.4-1.2-0.8 2-1.2 4.5-1.4 7.4-0.5-1.6 0-4 0.1-5.3-0.7 1.1-1.1 0.3-1.1-0.2 0.1-0.8-0.3-0.7-0.6-1-1.1-1-1.8-2.1-2.6-3.8 0.5-1.3 0.6-3.2-1-4.2-0.5-0.3-1.1-0.8-1.4-1.6-0.4-1.1-1.1-2.4-0.9-4.1 0.1-0.5-1.5 1.1-2.4 0.4-3.9-2.7-7.8-5.8-12.5-8.4-2.5 0-4.3-0.9-5.2-2-0.8-1-0.2-2.3 1-2.4 0.7 0 1.5-0.2 2.1 0.2 0.1-0.4 0.5-0.9 1-0.9M50 14.6l0.2 0.1c1 0.2 1.5 1.6 2.6 1.1 0 0.7 0.1 1.4-0.1 1.9-0.3 0.8-1.2 0.8-1.9 0.8-6.7-0.4-10.6 2.4-14.7 4.8-1.1 0.7-2.3 1.2-3.2 2.1-4.3 4-9 7.7-10.1 15.1l-0.9 8.2c-0.1 0.9-1.1 1.8-0.9 2.9l0.7 4.9c-0.7-0.7-1.1 0.2-0.9 0.6 0.1 0.3 0.5 1.3 1.1 0.4 0.8 1.5 1.6 4.4 2.7 5.7 3.4 4 7.8 7.6 11.4 11.2 0.9-0.2 1.6-0.2 1.8-0.8 0.3 0.6-0.3 1.2-0.8 1.3 1.6 1 3.4 1.9 5.8 2.1 3.1 0.2 6 0.7 8.7 1.4 1.4-0.4 2.8-0.6 4.3-0.7 0.5 0 0.8-0.8 1.4-1l0.1-1c0.6 0.9 0.5-0.3 0.1-0.9 0.7 0.6 0.9 1.1 1.2 1.5 0-0.3 0.8-1.4 0.8-0.1l0.2-1.3c0.3-0.2 0.4 1.1 0.7 0.2 0.3-0.9 0.9-0.2 1.5-0.5-0.2 0.4-0.1 1.2 0.6 0.7l0.8-0.7c0.5 1.2 1.3 0.7 1.7 0.5 4.4-2.8 8.8-6.1 13-9.4l-0.1 1.3 0.5-1.6c0.5 0.5 0.9 0.1 1.1-0.2 0.6-1 1.4-2 2.7-2.9-1.6 4.3-3.5 7.7-5.9 10.5l-1 1.2c0 0.7-0.2 1.6-1 1.7-0.4 0.1-1.2-0.2-1.8 0.4-0.3 0.4 0.7 1.2-0.1 0.6-0.7-0.5-1.4 0-2.2 0.2-0.6 0.2 0.4 0.8 0.6 1.2 0.2 0.4 0.4 0.8 0.3 1.3l-1.1-1.2c-1.3 0.7-2.1 2-3.2 3-0.5 0.4-0.3 1.1-0.3 1.7-0.7 0-1.5-0.2-1.9 0.2-0.3 0.4-0.2 1-0.2 1.6-1-0.1-1.1-1.6-2-1.3-0.9 0.2-1.9 0.3-2.7 0.8 0.6 1.2-1 0.5-0.8 0.7-1.5-0.9-2.8-1.6-4.4-1-3.4-1.1-7.6-0.6-10.7-0.2 0-0.5 0.1-1-0.1-1.1-0.2 0.5-0.8 0.3-0.7 0.3-1.9-1.3-3.8-2.1-5.8-3.2-1.8 0.2-3.5-0.7-4-1.2-1.4-1.3-3-0.6-4.3-0.9-2.8-0.7-3.8-3.6-4.1-5.6-0.2-1-1-1.4-1.3-1.3-1.3-4.2-3.3-8-4.9-11.9-0.4-1-0.3-2-0.3-3.1 0.5 0.2 1 0.1 0.9-0.6-0.5-3.3-1.7-5.8-3-8.2 0.7-3.4 0.8-7.4 2.4-10.4 1.4-2.7 4-4.1 5.8-6.4 0.6-0.8 0.6-1.9 1.2-2.6 2-2 4-4.1 6.2-5.9 1-0.8 2.2 0 3.7-0.3 0.5-1.8 2.5-3.4 4.4-2.9 0.8 0.2 2.4-1.9 2.9-2.1 0.8-0.3 0.4 0.8 0.4 1.5 1.9-1.5 4.5-2.3 6.9-3.2" fill="#ffffff" fill-rule="nonzero" stroke="none" stroke-width="1" stroke-linecap="butt" stroke-linejoin="miter" stroke-miterlimit="10" stroke-dasharray="" stroke-dashoffset="0" font-family="none" font-weight="none" font-size="none" text-anchor="none" style="mix-blend-mode: normal" data-fill-palette-color="tertiary"></path></g><g transform="matrix(1,0,0,1,76.93389497003079,90)"><svg viewBox="0 0 166.13221005993842 180" height="180" width="166.13221005993842"><g><svg viewBox="0 0 166.13221005993842 180" height="180" width="166.13221005993842"><g><svg viewBox="0 0 192 208.0270887116423" height="180" width="166.13221005993842"><g transform="matrix(1,0,0,1,0,113.32582655202492)"><svg viewBox="0 0 192 94.70126215961737" height="94.70126215961737" width="192"><g id="textblocktransform"><svg viewBox="0 0 192 94.70126215961737" height="94.70126215961737" width="192" id="textblock"><g><svg viewBox="0 0 192 61.049221183800626" height="61.049221183800626" width="192"><g transform="matrix(1,0,0,1,0,0)"><svg width="192" viewBox="1.59 -36.89 117.53999999999999 37.38" height="61.049221183800626" data-palette-color="#4a596d"><path d="M18.51-24.12L22.66-24.12 14.18 0 10.03 0 1.59-24.12 5.98-24.12 12.23-3.98 18.51-24.12ZM28.27-30.08L28.27-34.69 33.01-34.69 33.01-30.08 28.27-30.08ZM28.64 0L28.64-24.12 32.64-24.12 32.64 0 28.64 0ZM40.2-11.65L40.2-11.65Q40.2-14.77 41.08-17.26 41.96-19.75 43.5-21.34 45.04-22.92 47.1-23.77 49.16-24.61 51.56-24.61L51.56-24.61Q54.44-24.61 57.39-23.32L57.39-23.32 57.39-36.89 61.4-36.89 61.4 0 58.61 0 57.95-1.51Q54.56 0.49 50.87 0.49L50.87 0.49Q49.36 0.49 47.92 0.12 46.48-0.24 45.06-1.15 43.65-2.05 42.59-3.41 41.52-4.76 40.86-6.88 40.2-9.01 40.2-11.65ZM52.19-2.81L52.19-2.81Q54.85-2.81 57.39-4.17L57.39-4.17 57.39-20.29Q54.78-21.46 52.14-21.46L52.14-21.46Q51.02-21.46 49.97-21.22 48.92-20.97 47.82-20.34 46.72-19.7 45.93-18.7 45.14-17.7 44.62-16.05 44.11-14.4 44.11-12.28L44.11-12.28Q44.11-10.08 44.65-8.36 45.19-6.64 46.02-5.62 46.85-4.59 47.97-3.93 49.09-3.27 50.12-3.04 51.14-2.81 52.19-2.81ZM70.43 0L70.43-5.13 75.55-5.13 75.55 0 70.43 0ZM83.97-30.08L83.97-34.69 88.71-34.69 88.71-30.08 83.97-30.08ZM84.34 0L84.34-24.12 88.34-24.12 88.34 0 84.34 0ZM107.65-24.58L107.65-24.58Q112.66-24.58 115.89-21.39 119.13-18.19 119.13-12.55L119.13-12.55Q119.13-6.57 115.82-3.04 112.51 0.49 107.26 0.49L107.26 0.49Q102.26 0.49 99.08-2.82 95.91-6.13 95.91-11.79L95.91-11.79Q95.91-17.63 99.15-21.11 102.38-24.58 107.65-24.58ZM107.31-21.17L107.31-21.17Q104.31-21.17 102.06-18.85 99.82-16.53 99.82-12.48L99.82-12.48Q99.82-8.45 102.01-5.69 104.21-2.93 107.7-2.93L107.7-2.93Q110.93-2.93 113.07-5.37 115.22-7.81 115.22-11.74L115.22-11.74Q115.22-13.99 114.53-15.82 113.83-17.65 112.7-18.8 111.56-19.95 110.17-20.56 108.78-21.17 107.31-21.17Z" opacity="1" transform="matrix(1,0,0,1,0,0)" fill="#ffffff" class="wordmark-text-0" data-fill-palette-color="primary" id="text-0"></path></svg></g></svg></g><g transform="matrix(1,0,0,1,0,69.95776773582554)"><svg viewBox="0 0 192 24.743494423791823" height="24.743494423791823" width="192"><g transform="matrix(1,0,0,1,0,0)"><svg width="192" viewBox="2.6 -35.6 363.10999999999996 46.8" height="24.743494423791823" data-palette-color="#aab7c0"><path d="M16.9 0.6L16.9 0.6Q13.8 0.6 11.2-0.55 8.6-1.7 6.68-3.88 4.75-6.05 3.68-9.22 2.6-12.4 2.6-16.4L2.6-16.4Q2.6-20.35 3.7-23.5 4.8-26.65 6.75-28.85 8.7-31.05 11.35-32.23 14-33.4 17.15-33.4L17.15-33.4Q20.15-33.4 22.43-32.18 24.7-30.95 26.15-29.35L26.15-29.35 23.9-26.65Q22.6-28.05 20.95-28.9 19.3-29.75 17.2-29.75L17.2-29.75Q14.85-29.75 12.95-28.83 11.05-27.9 9.7-26.18 8.35-24.45 7.63-22 6.9-19.55 6.9-16.5L6.9-16.5Q6.9-13.4 7.63-10.93 8.35-8.45 9.65-6.7 10.95-4.95 12.83-4 14.7-3.05 17.05-3.05L17.05-3.05Q19.45-3.05 21.25-4.03 23.05-5 24.65-6.75L24.65-6.75 26.95-4.15Q25-1.9 22.55-0.65 20.1 0.6 16.9 0.6ZM42.1 0.6L42.1 0.6Q39.85 0.6 37.82-0.25 35.8-1.1 34.25-2.73 32.7-4.35 31.77-6.73 30.85-9.1 30.85-12.1L30.85-12.1Q30.85-15.15 31.77-17.53 32.7-19.9 34.25-21.55 35.8-23.2 37.82-24.05 39.85-24.9 42.1-24.9L42.1-24.9Q44.35-24.9 46.37-24.05 48.4-23.2 49.95-21.55 51.5-19.9 52.42-17.53 53.35-15.15 53.35-12.1L53.35-12.1Q53.35-9.1 52.42-6.73 51.5-4.35 49.95-2.73 48.4-1.1 46.37-0.25 44.35 0.6 42.1 0.6ZM42.1-2.8L42.1-2.8Q43.65-2.8 44.95-3.48 46.25-4.15 47.17-5.38 48.1-6.6 48.6-8.3 49.1-10 49.1-12.1L49.1-12.1Q49.1-14.2 48.6-15.93 48.1-17.65 47.17-18.9 46.25-20.15 44.95-20.83 43.65-21.5 42.1-21.5L42.1-21.5Q40.55-21.5 39.25-20.83 37.95-20.15 37.02-18.9 36.1-17.65 35.6-15.93 35.1-14.2 35.1-12.1L35.1-12.1Q35.1-10 35.6-8.3 36.1-6.6 37.02-5.38 37.95-4.15 39.25-3.48 40.55-2.8 42.1-2.8ZM63.85 0L59.75 0 59.75-24.3 63.15-24.3 63.5-20.8 63.65-20.8Q65.4-22.55 67.32-23.73 69.25-24.9 71.8-24.9L71.8-24.9Q75.65-24.9 77.42-22.5 79.2-20.1 79.2-15.4L79.2-15.4 79.2 0 75.09 0 75.09-14.85Q75.09-18.3 74-19.83 72.9-21.35 70.5-21.35L70.5-21.35Q68.59-21.35 67.15-20.4 65.7-19.45 63.85-17.6L63.85-17.6 63.85 0ZM91.19 0L87.09 0 87.09-24.3 90.49-24.3 90.84-20.8 90.99-20.8Q92.74-22.55 94.67-23.73 96.59-24.9 99.14-24.9L99.14-24.9Q102.99-24.9 104.77-22.5 106.54-20.1 106.54-15.4L106.54-15.4 106.54 0 102.44 0 102.44-14.85Q102.44-18.3 101.34-19.83 100.24-21.35 97.84-21.35L97.84-21.35Q95.94-21.35 94.49-20.4 93.04-19.45 91.19-17.6L91.19-17.6 91.19 0ZM124.29 0.6L124.29 0.6Q121.84 0.6 119.72-0.28 117.59-1.15 116.02-2.78 114.44-4.4 113.54-6.75 112.64-9.1 112.64-12.1L112.64-12.1Q112.64-15.1 113.56-17.48 114.49-19.85 116.02-21.5 117.54-23.15 119.49-24.03 121.44-24.9 123.54-24.9L123.54-24.9Q125.84-24.9 127.67-24.1 129.49-23.3 130.72-21.8 131.94-20.3 132.59-18.2 133.24-16.1 133.24-13.5L133.24-13.5Q133.24-12.85 133.22-12.23 133.19-11.6 133.09-11.15L133.09-11.15 116.69-11.15Q116.94-7.25 119.12-4.98 121.29-2.7 124.79-2.7L124.79-2.7Q126.54-2.7 128.02-3.23 129.49-3.75 130.84-4.6L130.84-4.6 132.29-1.9Q130.69-0.9 128.74-0.15 126.79 0.6 124.29 0.6ZM116.64-14.1L116.64-14.1 129.64-14.1Q129.64-17.8 128.06-19.73 126.49-21.65 123.64-21.65L123.64-21.65Q122.34-21.65 121.17-21.15 119.99-20.65 119.04-19.68 118.09-18.7 117.47-17.3 116.84-15.9 116.64-14.1ZM148.84 0.6L148.84 0.6Q146.44 0.6 144.34-0.25 142.24-1.1 140.71-2.73 139.19-4.35 138.31-6.73 137.44-9.1 137.44-12.1L137.44-12.1Q137.44-15.15 138.39-17.53 139.34-19.9 140.94-21.55 142.54-23.2 144.66-24.05 146.79-24.9 149.14-24.9L149.14-24.9Q151.54-24.9 153.24-24.05 154.94-23.2 156.24-22.05L156.24-22.05 154.14-19.35Q153.09-20.3 151.91-20.9 150.74-21.5 149.29-21.5L149.29-21.5Q147.64-21.5 146.24-20.83 144.84-20.15 143.84-18.9 142.84-17.65 142.26-15.93 141.69-14.2 141.69-12.1L141.69-12.1Q141.69-10 142.24-8.3 142.79-6.6 143.76-5.38 144.74-4.15 146.14-3.48 147.54-2.8 149.19-2.8L149.19-2.8Q150.89-2.8 152.31-3.53 153.74-4.25 154.89-5.25L154.89-5.25 156.69-2.5Q155.04-1.05 153.04-0.23 151.04 0.6 148.84 0.6ZM169.19 0.6L169.19 0.6Q167.24 0.6 165.91 0 164.59-0.6 163.76-1.65 162.94-2.7 162.59-4.2 162.24-5.7 162.24-7.5L162.24-7.5 162.24-20.95 158.64-20.95 158.64-24.05 162.44-24.3 162.94-31.1 166.39-31.1 166.39-24.3 172.94-24.3 172.94-20.95 166.39-20.95 166.39-7.45Q166.39-5.2 167.21-3.98 168.04-2.75 170.14-2.75L170.14-2.75Q170.79-2.75 171.54-2.95 172.29-3.15 172.89-3.4L172.89-3.4 173.69-0.3Q172.69 0.05 171.51 0.33 170.34 0.6 169.19 0.6ZM182.53 0L178.43 0 178.43-24.3 182.53-24.3 182.53 0ZM180.53-29.3L180.53-29.3Q179.33-29.3 178.51-30.05 177.68-30.8 177.68-31.95L177.68-31.95Q177.68-33.15 178.51-33.88 179.33-34.6 180.53-34.6L180.53-34.6Q181.73-34.6 182.56-33.88 183.38-33.15 183.38-31.95L183.38-31.95Q183.38-30.8 182.56-30.05 181.73-29.3 180.53-29.3ZM194.83 0L190.73 0 190.73-24.3 194.13-24.3 194.48-20.8 194.63-20.8Q196.38-22.55 198.31-23.73 200.23-24.9 202.78-24.9L202.78-24.9Q206.63-24.9 208.41-22.5 210.18-20.1 210.18-15.4L210.18-15.4 210.18 0 206.08 0 206.08-14.85Q206.08-18.3 204.98-19.83 203.88-21.35 201.48-21.35L201.48-21.35Q199.58-21.35 198.13-20.4 196.68-19.45 194.83-17.6L194.83-17.6 194.83 0ZM226.28 11.2L226.28 11.2Q224.03 11.2 222.18 10.78 220.33 10.35 219 9.5 217.68 8.65 216.95 7.45 216.23 6.25 216.23 4.65L216.23 4.65Q216.23 3.1 217.18 1.7 218.13 0.3 219.78-0.85L219.78-0.85 219.78-1.05Q218.88-1.6 218.25-2.58 217.63-3.55 217.63-5L217.63-5Q217.63-6.55 218.48-7.7 219.33-8.85 220.28-9.5L220.28-9.5 220.28-9.7Q219.08-10.7 218.1-12.38 217.13-14.05 217.13-16.25L217.13-16.25Q217.13-18.25 217.85-19.85 218.58-21.45 219.83-22.58 221.08-23.7 222.75-24.3 224.43-24.9 226.28-24.9L226.28-24.9Q227.28-24.9 228.15-24.73 229.03-24.55 229.73-24.3L229.73-24.3 238.18-24.3 238.18-21.15 233.18-21.15Q234.03-20.3 234.6-19 235.18-17.7 235.18-16.15L235.18-16.15Q235.18-14.2 234.48-12.63 233.78-11.05 232.58-9.98 231.38-8.9 229.75-8.3 228.13-7.7 226.28-7.7L226.28-7.7Q225.38-7.7 224.43-7.93 223.48-8.15 222.63-8.55L222.63-8.55Q221.98-8 221.53-7.33 221.08-6.65 221.08-5.65L221.08-5.65Q221.08-4.5 221.98-3.75 222.88-3 225.38-3L225.38-3 230.08-3Q234.33-3 236.45-1.63 238.58-0.25 238.58 2.8L238.58 2.8Q238.58 4.5 237.73 6.03 236.88 7.55 235.28 8.7 233.68 9.85 231.4 10.53 229.13 11.2 226.28 11.2ZM226.28-10.45L226.28-10.45Q227.33-10.45 228.25-10.85 229.18-11.25 229.9-12 230.63-12.75 231.03-13.83 231.43-14.9 231.43-16.25L231.43-16.25Q231.43-18.95 229.93-20.43 228.43-21.9 226.28-21.9L226.28-21.9Q224.13-21.9 222.63-20.43 221.13-18.95 221.13-16.25L221.13-16.25Q221.13-14.9 221.53-13.83 221.93-12.75 222.65-12 223.38-11.25 224.3-10.85 225.23-10.45 226.28-10.45ZM226.88 8.35L226.88 8.35Q228.63 8.35 230.05 7.93 231.48 7.5 232.48 6.83 233.48 6.15 234.03 5.25 234.58 4.35 234.58 3.4L234.58 3.4Q234.58 1.7 233.33 1.05 232.08 0.4 229.68 0.4L229.68 0.4 225.48 0.4Q224.78 0.4 223.95 0.33 223.13 0.25 222.33 0L222.33 0Q221.03 0.95 220.43 2 219.83 3.05 219.83 4.1L219.83 4.1Q219.83 6.05 221.7 7.2 223.58 8.35 226.88 8.35ZM261.92 0L257.12 0 250.37-24.3 254.57-24.3 258.17-10.25Q258.57-8.5 258.92-6.85 259.27-5.2 259.62-3.5L259.62-3.5 259.82-3.5Q260.22-5.2 260.62-6.88 261.02-8.55 261.47-10.25L261.47-10.25 265.22-24.3 269.22-24.3 273.02-10.25Q273.47-8.5 273.9-6.85 274.32-5.2 274.72-3.5L274.72-3.5 274.92-3.5Q275.32-5.2 275.67-6.85 276.02-8.5 276.42-10.25L276.42-10.25 279.97-24.3 283.87-24.3 277.37 0 272.37 0 268.87-13.05Q268.42-14.8 268.05-16.5 267.67-18.2 267.22-20.05L267.22-20.05 267.02-20.05Q266.62-18.2 266.22-16.48 265.82-14.75 265.32-13L265.32-13 261.92 0ZM298.42 0.6L298.42 0.6Q296.17 0.6 294.15-0.25 292.12-1.1 290.57-2.73 289.02-4.35 288.1-6.73 287.17-9.1 287.17-12.1L287.17-12.1Q287.17-15.15 288.1-17.53 289.02-19.9 290.57-21.55 292.12-23.2 294.15-24.05 296.17-24.9 298.42-24.9L298.42-24.9Q300.67-24.9 302.7-24.05 304.72-23.2 306.27-21.55 307.82-19.9 308.75-17.53 309.67-15.15 309.67-12.1L309.67-12.1Q309.67-9.1 308.75-6.73 307.82-4.35 306.27-2.73 304.72-1.1 302.7-0.25 300.67 0.6 298.42 0.6ZM298.42-2.8L298.42-2.8Q299.97-2.8 301.27-3.48 302.57-4.15 303.5-5.38 304.42-6.6 304.92-8.3 305.42-10 305.42-12.1L305.42-12.1Q305.42-14.2 304.92-15.93 304.42-17.65 303.5-18.9 302.57-20.15 301.27-20.83 299.97-21.5 298.42-21.5L298.42-21.5Q296.87-21.5 295.57-20.83 294.27-20.15 293.35-18.9 292.42-17.65 291.92-15.93 291.42-14.2 291.42-12.1L291.42-12.1Q291.42-10 291.92-8.3 292.42-6.6 293.35-5.38 294.27-4.15 295.57-3.48 296.87-2.8 298.42-2.8ZM320.17 0L316.07 0 316.07-24.3 319.47-24.3 319.82-19.9 319.97-19.9Q321.22-22.2 322.99-23.55 324.77-24.9 326.87-24.9L326.87-24.9Q328.32-24.9 329.47-24.4L329.47-24.4 328.67-20.8Q328.07-21 327.57-21.1 327.07-21.2 326.32-21.2L326.32-21.2Q324.77-21.2 323.09-19.95 321.42-18.7 320.17-15.6L320.17-15.6 320.17 0ZM337.77 0.6L337.77 0.6Q335.42 0.6 334.42-0.8 333.42-2.2 333.42-4.9L333.42-4.9 333.42-35.6 337.52-35.6 337.52-4.6Q337.52-3.6 337.87-3.2 338.22-2.8 338.67-2.8L338.67-2.8Q338.87-2.8 339.04-2.8 339.22-2.8 339.57-2.9L339.57-2.9 340.12 0.2Q339.72 0.4 339.17 0.5 338.62 0.6 337.77 0.6ZM354.46 0.6L354.46 0.6Q349.86 0.6 347.14-2.7 344.41-6 344.41-12.1L344.41-12.1Q344.41-15.05 345.29-17.43 346.16-19.8 347.61-21.45 349.06-23.1 350.96-24 352.86-24.9 354.96-24.9L354.96-24.9Q357.06-24.9 358.61-24.15 360.16-23.4 361.76-22.1L361.76-22.1 361.56-26.25 361.56-35.6 365.71-35.6 365.71 0 362.31 0 361.96-2.85 361.81-2.85Q360.36-1.45 358.49-0.43 356.61 0.6 354.46 0.6ZM355.36-2.85L355.36-2.85Q357.06-2.85 358.56-3.68 360.06-4.5 361.56-6.2L361.56-6.2 361.56-18.9Q360.01-20.3 358.59-20.88 357.16-21.45 355.66-21.45L355.66-21.45Q354.21-21.45 352.94-20.78 351.66-20.1 350.71-18.88 349.76-17.65 349.21-15.95 348.66-14.25 348.66-12.15L348.66-12.15Q348.66-7.75 350.41-5.3 352.16-2.85 355.36-2.85Z" opacity="1" transform="matrix(1,0,0,1,0,0)" fill="#ffffff" class="slogan-text-1" data-fill-palette-color="secondary" id="text-1"></path></svg></g></svg></g></svg></g></svg></g><g transform="matrix(1,0,0,1,36.672,0)"><svg viewBox="0 0 118.656 104.41728" height="104.41728" width="118.656"><g><svg xmlns="http://www.w3.org/2000/svg" xmlns:xlink="http://www.w3.org/1999/xlink" version="1.1" x="0" y="0" viewBox="0 6 100 88" enable-background="new 0 0 100 100" xml:space="preserve" height="104.41728" width="118.656" class="icon-icon-0" data-fill-palette-color="accent" id="icon-0"><polygon points="70.406,54 50.453,65.669 30.5,77.339 30.5,54 30.5,30.662 50.453,42.331 " fill="#ffffff" data-fill-palette-color="accent"></polygon><path d="M94 6H6c-3.313 0-6 2.687-6 6v76c0 3.313 2.687 6 6 6h88c3.314 0 6-2.688 6-6V12C100 8.686 97.314 6 94 6zM79 10c2.205 0 4 1.794 4 4s-1.795 4-4 4-4-1.794-4-4S76.795 10 79 10zM68 10c2.205 0 4 1.794 4 4s-1.795 4-4 4-4-1.794-4-4S65.795 10 68 10zM94 88H6V22h88V88zM90 18c-2.205 0-4-1.794-4-4s1.795-4 4-4 4 1.794 4 4S92.205 18 90 18z" fill="#ffffff" data-fill-palette-color="accent"></path></svg></g></svg></g><g></g></svg></g></svg></g></svg></g></svg></g><defs></defs></svg><rect width="320" height="360" fill="none" stroke="none" visibility="hidden"></rect></g></svg></g></svg>